<?xml version="1.0" encoding="UTF-8"?>
<svg width="512" height="512" viewBox="0 0 512 512" fill="none" xmlns="http://www.w3.org/2000/svg">
  <!-- Main leaf shape with more detail -->
  <path d="M448 64C341.962 64.2462 240.744 104.413 166.4 181.029C91.7836 255.645 49.6178 356.589 49.3711 462.629C49.3711 469.143 53.0284 475.771 58.5139 475.771C164.552 475.523 265.498 435.358 339.842 358.742C414.186 282.126 456.352 181.182 456.571 75.1429C456.571 68.5714 452.914 64 448 64Z" fill="url(#paint0_linear)"/>
  
  <!-- Leaf veins for more detail -->
  <path d="M256 150C230 180 210 220 200 270" stroke="#166534" stroke-width="4" stroke-linecap="round"/>
  <path d="M310 230C290 270 260 300 220 320" stroke="#166534" stroke-width="4" stroke-linecap="round"/>
  <path d="M350 180C330 210 300 240 260 260" stroke="#166534" stroke-width="4" stroke-linecap="round"/>
  
  <!-- Stem detail -->
  <path d="M136.229 336.457C126.886 336.457 117.543 332.8 110.629 324.343C77.7143 292.571 60.3429 246.857 60.3429 199.314C60.3429 193.714 55.2 188.571 49.6 188.571C44 188.571 38.8571 193.714 38.8571 199.314C38.8571 252.343 58 303.2 97.8286 342.4C107.7 352.229 117.943 356.743 130.743 356.743C136.343 356.743 141.486 351.6 141.486 346C141.486 340.114 138.057 336.457 136.229 336.457Z" fill="url(#paint1_linear)"/>
  
  <!-- Leaf highlight for dimension -->
  <path opacity="0.2" d="M320 120C260 160 220 210 200 270" stroke="white" stroke-width="6" stroke-linecap="round"/>
  
  <!-- Gradient definitions -->
  <defs>
    <linearGradient id="paint0_linear" x1="49.3711" y1="269.886" x2="456.571" y2="269.886" gradientUnits="userSpaceOnUse">
      <stop stop-color="#16A34A"/>
      <stop offset="0.5" stop-color="#22C55E"/>
      <stop offset="1" stop-color="#059669"/>
    </linearGradient>
    <linearGradient id="paint1_linear" x1="38.8571" y1="272.457" x2="141.486" y2="272.457" gradientUnits="userSpaceOnUse">
      <stop stop-color="#16A34A"/>
      <stop offset="0.5" stop-color="#22C55E"/>
      <stop offset="1" stop-color="#059669"/>
    </linearGradient>
  </defs>
</svg> 