<?xml version="1.0" encoding="UTF-8"?>
<svg width="32" height="32" viewBox="0 0 32 32" fill="none" xmlns="http://www.w3.org/2000/svg">
  <path d="M28 4C21.3726 4.01541 15.0635 6.65077 10.4 11.3143C5.73647 15.9778 3.10111 22.2868 3.08569 28.9143C3.08569 29.2571 3.31426 29.4857 3.65712 29.4857C10.2845 29.4702 16.5936 26.8349 21.2571 22.1714C25.9206 17.5079 28.556 11.1988 28.5714 4.57143C28.5714 4.22857 28.3429 4 28 4Z" fill="url(#paint0_linear)"/>
  <path d="M8.51431 21.0286C7.94289 21.0286 7.37146 20.8 6.91431 20.3429C4.85717 18.2857 3.77146 15.4286 3.77146 12.4571C3.77146 12.1143 3.54289 11.8857 3.20003 11.8857C2.85717 11.8857 2.62859 12.1143 2.62859 12.4571C2.62859 15.7714 3.82859 18.9714 6.11431 21.2571C6.68574 21.8286 7.37146 22.1714 8.17146 22.1714C8.51431 22.1714 8.74289 21.9429 8.74289 21.6C8.74289 21.2571 8.62859 21.0286 8.51431 21.0286Z" fill="url(#paint1_linear)"/>
  <defs>
    <linearGradient id="paint0_linear" x1="3.08569" y1="16.7429" x2="28.5714" y2="16.7429" gradientUnits="userSpaceOnUse">
      <stop stop-color="#16A34A"/>
      <stop offset="1" stop-color="#059669"/>
    </linearGradient>
    <linearGradient id="paint1_linear" x1="2.62859" y1="17.0286" x2="8.74289" y2="17.0286" gradientUnits="userSpaceOnUse">
      <stop stop-color="#16A34A"/>
      <stop offset="1" stop-color="#059669"/>
    </linearGradient>
  </defs>
</svg> 